<mxfile host="app.diagrams.net" agent="Mozilla/5.0 (Windows NT 10.0; Win64; x64) AppleWebKit/537.36 (KHTML, like Gecko) Chrome/130.0.0.0 Safari/537.36" version="24.8.6">
  <diagram name="Page-1" id="0XRDkxaGJ8MRRmCMOCM4">
    <mxGraphModel dx="1221" dy="638" grid="1" gridSize="10" guides="1" tooltips="1" connect="1" arrows="1" fold="1" page="1" pageScale="1" pageWidth="3300" pageHeight="4681" math="0" shadow="0">
      <root>
        <mxCell id="0" />
        <mxCell id="1" parent="0" />
        <mxCell id="SDcvAr6CtPs48peLbvJb-33" style="edgeStyle=orthogonalEdgeStyle;rounded=0;orthogonalLoop=1;jettySize=auto;html=1;entryX=0.5;entryY=0;entryDx=0;entryDy=0;" edge="1" parent="1" source="SDcvAr6CtPs48peLbvJb-3" target="SDcvAr6CtPs48peLbvJb-9">
          <mxGeometry relative="1" as="geometry" />
        </mxCell>
        <mxCell id="SDcvAr6CtPs48peLbvJb-3" value="" style="ellipse;fillColor=strokeColor;fontSize=11;labelPosition=left;verticalLabelPosition=middle;align=right;verticalAlign=middle;spacingRight=7;" vertex="1" parent="1">
          <mxGeometry x="1100" y="360" width="30" height="30" as="geometry" />
        </mxCell>
        <mxCell id="SDcvAr6CtPs48peLbvJb-4" value="" style="ellipse;html=1;shape=endState;fillColor=strokeColor;fontSize=11;labelPosition=left;verticalLabelPosition=middle;align=right;verticalAlign=middle;spacingRight=7;" vertex="1" parent="1">
          <mxGeometry x="1100" y="910" width="30" height="30" as="geometry" />
        </mxCell>
        <mxCell id="SDcvAr6CtPs48peLbvJb-34" style="edgeStyle=orthogonalEdgeStyle;rounded=0;orthogonalLoop=1;jettySize=auto;html=1;exitX=0.5;exitY=1;exitDx=0;exitDy=0;entryX=0.5;entryY=0;entryDx=0;entryDy=0;" edge="1" parent="1" source="SDcvAr6CtPs48peLbvJb-9" target="SDcvAr6CtPs48peLbvJb-10">
          <mxGeometry relative="1" as="geometry" />
        </mxCell>
        <mxCell id="SDcvAr6CtPs48peLbvJb-9" value="1" style="ellipse;whiteSpace=wrap;html=1;aspect=fixed;" vertex="1" parent="1">
          <mxGeometry x="1095" y="420" width="40" height="40" as="geometry" />
        </mxCell>
        <mxCell id="SDcvAr6CtPs48peLbvJb-36" value="" style="rounded=0;orthogonalLoop=1;jettySize=auto;html=1;" edge="1" parent="1" source="SDcvAr6CtPs48peLbvJb-10" target="SDcvAr6CtPs48peLbvJb-35">
          <mxGeometry relative="1" as="geometry" />
        </mxCell>
        <mxCell id="SDcvAr6CtPs48peLbvJb-50" value="" style="rounded=0;orthogonalLoop=1;jettySize=auto;html=1;" edge="1" parent="1" source="SDcvAr6CtPs48peLbvJb-10" target="SDcvAr6CtPs48peLbvJb-49">
          <mxGeometry relative="1" as="geometry" />
        </mxCell>
        <mxCell id="SDcvAr6CtPs48peLbvJb-10" value="2" style="ellipse;whiteSpace=wrap;html=1;aspect=fixed;" vertex="1" parent="1">
          <mxGeometry x="1095" y="490" width="40" height="40" as="geometry" />
        </mxCell>
        <mxCell id="SDcvAr6CtPs48peLbvJb-38" value="" style="rounded=0;orthogonalLoop=1;jettySize=auto;html=1;" edge="1" parent="1" source="SDcvAr6CtPs48peLbvJb-35" target="SDcvAr6CtPs48peLbvJb-37">
          <mxGeometry relative="1" as="geometry" />
        </mxCell>
        <mxCell id="SDcvAr6CtPs48peLbvJb-35" value="3" style="ellipse;whiteSpace=wrap;html=1;aspect=fixed;" vertex="1" parent="1">
          <mxGeometry x="1030" y="540" width="40" height="40" as="geometry" />
        </mxCell>
        <mxCell id="SDcvAr6CtPs48peLbvJb-44" style="rounded=0;orthogonalLoop=1;jettySize=auto;html=1;exitX=0.5;exitY=1;exitDx=0;exitDy=0;entryX=0;entryY=1;entryDx=0;entryDy=0;" edge="1" parent="1" source="SDcvAr6CtPs48peLbvJb-47" target="SDcvAr6CtPs48peLbvJb-4">
          <mxGeometry relative="1" as="geometry">
            <mxPoint x="1100" y="1160" as="targetPoint" />
          </mxGeometry>
        </mxCell>
        <mxCell id="SDcvAr6CtPs48peLbvJb-48" value="" style="rounded=0;orthogonalLoop=1;jettySize=auto;html=1;" edge="1" parent="1" source="SDcvAr6CtPs48peLbvJb-37" target="SDcvAr6CtPs48peLbvJb-47">
          <mxGeometry relative="1" as="geometry" />
        </mxCell>
        <mxCell id="SDcvAr6CtPs48peLbvJb-37" value="4" style="ellipse;whiteSpace=wrap;html=1;aspect=fixed;" vertex="1" parent="1">
          <mxGeometry x="960" y="600" width="40" height="40" as="geometry" />
        </mxCell>
        <mxCell id="SDcvAr6CtPs48peLbvJb-47" value="5" style="ellipse;whiteSpace=wrap;html=1;aspect=fixed;" vertex="1" parent="1">
          <mxGeometry x="900" y="660" width="40" height="40" as="geometry" />
        </mxCell>
        <mxCell id="SDcvAr6CtPs48peLbvJb-52" value="" style="rounded=0;orthogonalLoop=1;jettySize=auto;html=1;" edge="1" parent="1" source="SDcvAr6CtPs48peLbvJb-49" target="SDcvAr6CtPs48peLbvJb-51">
          <mxGeometry relative="1" as="geometry" />
        </mxCell>
        <mxCell id="SDcvAr6CtPs48peLbvJb-59" value="" style="rounded=0;orthogonalLoop=1;jettySize=auto;html=1;" edge="1" parent="1" source="SDcvAr6CtPs48peLbvJb-49" target="SDcvAr6CtPs48peLbvJb-58">
          <mxGeometry relative="1" as="geometry" />
        </mxCell>
        <mxCell id="SDcvAr6CtPs48peLbvJb-49" value="6" style="ellipse;whiteSpace=wrap;html=1;aspect=fixed;" vertex="1" parent="1">
          <mxGeometry x="1160" y="540" width="40" height="40" as="geometry" />
        </mxCell>
        <mxCell id="SDcvAr6CtPs48peLbvJb-54" value="" style="rounded=0;orthogonalLoop=1;jettySize=auto;html=1;" edge="1" parent="1" source="SDcvAr6CtPs48peLbvJb-51" target="SDcvAr6CtPs48peLbvJb-53">
          <mxGeometry relative="1" as="geometry" />
        </mxCell>
        <mxCell id="SDcvAr6CtPs48peLbvJb-51" value="7" style="ellipse;whiteSpace=wrap;html=1;aspect=fixed;" vertex="1" parent="1">
          <mxGeometry x="1095" y="590" width="40" height="40" as="geometry" />
        </mxCell>
        <mxCell id="SDcvAr6CtPs48peLbvJb-56" value="" style="rounded=0;orthogonalLoop=1;jettySize=auto;html=1;" edge="1" parent="1" source="SDcvAr6CtPs48peLbvJb-53" target="SDcvAr6CtPs48peLbvJb-55">
          <mxGeometry relative="1" as="geometry" />
        </mxCell>
        <mxCell id="SDcvAr6CtPs48peLbvJb-53" value="8" style="ellipse;whiteSpace=wrap;html=1;aspect=fixed;" vertex="1" parent="1">
          <mxGeometry x="1030" y="640" width="40" height="40" as="geometry" />
        </mxCell>
        <mxCell id="SDcvAr6CtPs48peLbvJb-57" style="rounded=0;orthogonalLoop=1;jettySize=auto;html=1;entryX=0;entryY=0;entryDx=0;entryDy=0;exitX=0.5;exitY=1;exitDx=0;exitDy=0;" edge="1" parent="1" source="SDcvAr6CtPs48peLbvJb-55" target="SDcvAr6CtPs48peLbvJb-4">
          <mxGeometry relative="1" as="geometry" />
        </mxCell>
        <mxCell id="SDcvAr6CtPs48peLbvJb-55" value="9" style="ellipse;whiteSpace=wrap;html=1;aspect=fixed;" vertex="1" parent="1">
          <mxGeometry x="980" y="690" width="40" height="40" as="geometry" />
        </mxCell>
        <mxCell id="SDcvAr6CtPs48peLbvJb-61" value="" style="rounded=0;orthogonalLoop=1;jettySize=auto;html=1;" edge="1" parent="1" source="SDcvAr6CtPs48peLbvJb-58" target="SDcvAr6CtPs48peLbvJb-60">
          <mxGeometry relative="1" as="geometry" />
        </mxCell>
        <mxCell id="SDcvAr6CtPs48peLbvJb-68" value="" style="rounded=0;orthogonalLoop=1;jettySize=auto;html=1;" edge="1" parent="1" source="SDcvAr6CtPs48peLbvJb-58" target="SDcvAr6CtPs48peLbvJb-67">
          <mxGeometry relative="1" as="geometry" />
        </mxCell>
        <mxCell id="SDcvAr6CtPs48peLbvJb-58" value="10" style="ellipse;whiteSpace=wrap;html=1;aspect=fixed;" vertex="1" parent="1">
          <mxGeometry x="1220" y="600" width="40" height="40" as="geometry" />
        </mxCell>
        <mxCell id="SDcvAr6CtPs48peLbvJb-63" value="" style="rounded=0;orthogonalLoop=1;jettySize=auto;html=1;" edge="1" parent="1" source="SDcvAr6CtPs48peLbvJb-60" target="SDcvAr6CtPs48peLbvJb-62">
          <mxGeometry relative="1" as="geometry" />
        </mxCell>
        <mxCell id="SDcvAr6CtPs48peLbvJb-60" value="11" style="ellipse;whiteSpace=wrap;html=1;aspect=fixed;" vertex="1" parent="1">
          <mxGeometry x="1150" y="650" width="40" height="40" as="geometry" />
        </mxCell>
        <mxCell id="SDcvAr6CtPs48peLbvJb-65" value="" style="rounded=0;orthogonalLoop=1;jettySize=auto;html=1;" edge="1" parent="1" source="SDcvAr6CtPs48peLbvJb-62" target="SDcvAr6CtPs48peLbvJb-64">
          <mxGeometry relative="1" as="geometry" />
        </mxCell>
        <mxCell id="SDcvAr6CtPs48peLbvJb-62" value="12" style="ellipse;whiteSpace=wrap;html=1;aspect=fixed;" vertex="1" parent="1">
          <mxGeometry x="1080" y="690" width="40" height="40" as="geometry" />
        </mxCell>
        <mxCell id="SDcvAr6CtPs48peLbvJb-66" style="rounded=0;orthogonalLoop=1;jettySize=auto;html=1;entryX=0.5;entryY=0;entryDx=0;entryDy=0;exitX=0.806;exitY=0.992;exitDx=0;exitDy=0;exitPerimeter=0;" edge="1" parent="1" source="SDcvAr6CtPs48peLbvJb-64" target="SDcvAr6CtPs48peLbvJb-4">
          <mxGeometry relative="1" as="geometry" />
        </mxCell>
        <mxCell id="SDcvAr6CtPs48peLbvJb-64" value="13" style="ellipse;whiteSpace=wrap;html=1;aspect=fixed;" vertex="1" parent="1">
          <mxGeometry x="1055" y="760" width="40" height="40" as="geometry" />
        </mxCell>
        <mxCell id="SDcvAr6CtPs48peLbvJb-70" value="" style="rounded=0;orthogonalLoop=1;jettySize=auto;html=1;" edge="1" parent="1" source="SDcvAr6CtPs48peLbvJb-67" target="SDcvAr6CtPs48peLbvJb-69">
          <mxGeometry relative="1" as="geometry" />
        </mxCell>
        <mxCell id="SDcvAr6CtPs48peLbvJb-67" value="14" style="ellipse;whiteSpace=wrap;html=1;aspect=fixed;" vertex="1" parent="1">
          <mxGeometry x="1280" y="660" width="40" height="40" as="geometry" />
        </mxCell>
        <mxCell id="SDcvAr6CtPs48peLbvJb-73" style="rounded=0;orthogonalLoop=1;jettySize=auto;html=1;entryX=1;entryY=0.5;entryDx=0;entryDy=0;" edge="1" parent="1" source="SDcvAr6CtPs48peLbvJb-69" target="SDcvAr6CtPs48peLbvJb-4">
          <mxGeometry relative="1" as="geometry" />
        </mxCell>
        <mxCell id="SDcvAr6CtPs48peLbvJb-69" value="15" style="ellipse;whiteSpace=wrap;html=1;aspect=fixed;" vertex="1" parent="1">
          <mxGeometry x="1310" y="730" width="40" height="40" as="geometry" />
        </mxCell>
      </root>
    </mxGraphModel>
  </diagram>
</mxfile>
